<svg xmlns="http://www.w3.org/2000/svg" width="112" height="32" viewBox="0 0 112 32">
    <path d="M7.962 0c4.91 0 7.344 2.39 7.344 7.707v16.698c0 5.206-2.391 7.595-7.344 7.595C3.01 32 .667 29.61.667 24.405V7.707C.667 2.389 3.052 0 7.962 0zm96.828 0c4.574 0 6.72 2.235 6.72 6.976v2.016l-5.24.661v-2.72c0-1.994-.532-2.746-1.597-2.746-.8 0-1.215.576-1.215 1.6 0 1.482.533 3.52 2.663 6.464l2.077 2.949c2.077 2.944 3.802 5.69 3.802 9.83 0 4.543-2.386 6.933-6.987 6.933-4.6 0-7.034-2.331-7.034-7.339v-2.592l5.463-.699v3.323c0 2.213.49 3.056 1.705 3.056.82 0 1.283-.667 1.283-1.84 0-2.261-.772-4.475-2.785-7.419l-2.013-2.965c-1.992-2.95-3.605-5.45-3.605-8.64C98.043 2.133 100.365 0 104.79 0zM21.398.485l1.017 13.712c.245 3.2.335 5.382.378 9.168h.484c.07-3.765.181-6.026.421-9.168L24.763.485h5.549l1.017 13.712c.24 3.142.33 5.403.4 9.168h.484c.09-3.765.176-5.957.42-9.168L33.652.485h5.485L35.44 31.493h-6.39l-.73-9.626c-.309-3.894-.484-6.934-.617-10.982h-.464c-.154 4.075-.314 7.062-.623 10.982l-.73 9.6h-6.342L15.673.485h5.725zm24.25 0v26.331h4.793v4.677H39.897V.485h5.751zm15.374 0v26.331h4.793v4.677H55.276V.485h5.746zm17.04 0l4.08 31.008h-5.96l-.308-3.968h-3.45l-.31 3.968h-5.527L70.5.485h7.562zm13.037 0c4.026 0 5.73 1.862 5.73 6.048v3.654c0 2.965-1.199 4.229-3.078 4.896v.485c2.13.752 3.472 2.283 3.472 5.739v3.962c0 4.267-1.832 6.224-5.858 6.224h-8.467V.485h8.2zM7.983 4.475c-1.043 0-1.544.794-1.544 2.458v18.288c0 1.552.506 2.304 1.544 2.304 1.039 0 1.55-.752 1.55-2.304V6.933c0-1.664-.506-2.458-1.55-2.458zm81.944 12.997h-1.283v9.6l1.283-.032c1.017 0 1.417-.533 1.417-1.995v-5.648c0-1.413-.4-1.925-1.417-1.925zM74.34 8.037h-.463c-.09 3.968-.245 6.315-.484 10.235l-.533 5.333h2.545l-.532-5.333c-.245-3.92-.4-6.267-.533-10.235zm15.523-3.141h-1.22v8.437h1.22c1.017 0 1.411-.464 1.411-1.84V6.8c0-1.397-.394-1.904-1.41-1.904z" transform="translate(-132 -8) translate(132 8)"></path>
</svg>