<svg width="32" height="32" viewBox="0 0 32 32" fill="none" xmlns="http://www.w3.org/2000/svg">
    <g clip-path="url(#clip0_153_144)">
        <rect width="32" height="32" fill="white" />
        <g clip-path="url(#clip1_153_144)">
            <path
                d="M16 32C12.8355 32 9.74202 31.0616 7.11084 29.3035C4.47965 27.5454 2.42889 25.0465 1.21789 22.1229C0.00688671 19.1993 -0.309967 15.9822 0.307397 12.8785C0.92476 9.77482 2.44861 6.92389 4.68625 4.68625C6.92389 2.44861 9.77482 0.92476 12.8785 0.307397C15.9822 -0.309967 19.1993 0.00688671 22.1229 1.21789C25.0465 2.42889 27.5454 4.47965 29.3035 7.11084C31.0616 9.74202 32 12.8355 32 16C32 20.2434 30.3142 24.3131 27.3137 27.3137C24.3131 30.3142 20.2434 32 16 32Z"
                fill="#4A4FF7" />
            <path
                d="M11.0313 11.0109C11.0321 11.3753 11.141 11.7312 11.3441 12.0337C11.5472 12.3362 11.8354 12.5718 12.1723 12.7106C12.5092 12.8493 12.8797 12.8851 13.2369 12.8134C13.5942 12.7417 13.9221 12.5657 14.1794 12.3076C14.4366 12.0496 14.6116 11.721 14.6822 11.3636C14.7528 11.0061 14.7158 10.6357 14.576 10.2993C14.4361 9.96281 14.1997 9.67534 13.8965 9.47321C13.5934 9.27108 13.2371 9.16334 12.8727 9.16363C12.6304 9.16363 12.3905 9.21145 12.1667 9.30436C11.9429 9.39726 11.7396 9.53342 11.5686 9.70504C11.3975 9.87665 11.262 10.0803 11.1698 10.3044C11.0776 10.5285 11.0305 10.7686 11.0313 11.0109ZM17.8167 11.0109C17.8176 11.3752 17.9264 11.7311 18.1294 12.0336C18.3325 12.3361 18.6206 12.5716 18.9574 12.7104C19.2942 12.8492 19.6646 12.8851 20.0218 12.8135C20.379 12.7419 20.707 12.566 20.9643 12.3081C21.2216 12.0502 21.3967 11.7218 21.4675 11.3645C21.5382 11.0071 21.5015 10.6368 21.3618 10.3003C21.2222 9.96379 20.986 9.67623 20.6831 9.47392C20.3801 9.27161 20.0239 9.16363 19.6596 9.16363C19.4172 9.16344 19.1771 9.21112 18.9532 9.30394C18.7292 9.39676 18.5258 9.53289 18.3545 9.70452C18.1833 9.87615 18.0477 10.0799 17.9554 10.3041C17.8631 10.5283 17.816 10.7685 17.8167 11.0109ZM16.2676 20.2415C15.1305 20.2416 14.0109 19.962 13.0074 19.4272C12.0039 18.8923 11.1474 18.1188 10.5136 17.1747C9.87969 16.2307 9.48789 15.1452 9.37271 14.0139C9.25752 12.8826 9.4225 11.7404 9.8531 10.688C10.0102 10.3389 10.9207 8.50618 12.8626 8.50618C14.5746 8.50618 15.3484 9.70181 15.3731 10.7956L15.4706 13.9113H17.0706L17.1636 10.8029C17.1884 9.70908 17.9622 8.51345 19.6742 8.51345C21.616 8.51345 22.5266 10.3389 22.6822 10.6953C23.1127 11.7475 23.2777 12.8894 23.1627 14.0205C23.0476 15.1515 22.6561 16.2368 22.0225 17.1808C21.389 18.1248 20.5329 18.8984 19.5298 19.4334C18.5267 19.9684 17.4074 20.2484 16.2706 20.2487L16.2676 20.2415ZM16.2706 5.92872C14.1944 5.93141 12.2039 6.75706 10.7355 8.22473C9.26698 9.6924 8.44022 11.6824 8.43637 13.7585V26.0785H16.2735C18.351 26.0758 20.3427 25.2492 21.8116 23.78C23.2806 22.3108 24.1068 20.319 24.1091 18.2415V13.7585C24.1068 11.681 23.2806 9.68914 21.8116 8.21994C20.3427 6.75075 18.351 5.92414 16.2735 5.92145"
                fill="white" />
        </g>
    </g>
    <defs>
        <clipPath id="clip0_153_144">
            <rect width="32" height="32" fill="white" />
        </clipPath>
        <clipPath id="clip1_153_144">
            <rect width="32" height="32" fill="white" />
        </clipPath>
    </defs>
</svg>
    